<?xml version="1.0" standalone="no"?>
<!DOCTYPE svg PUBLIC "-//W3C//DTD SVG 20010904//EN"
 "http://www.w3.org/TR/2001/REC-SVG-20010904/DTD/svg10.dtd">
<svg version="1.0" xmlns="http://www.w3.org/2000/svg"
 width="40.000000pt" height="40.000000pt" viewBox="0 0 40.000000 40.000000"
 preserveAspectRatio="xMidYMid meet">

<g transform="translate(0.000000,40.000000) scale(0.100000,-0.100000)"
fill="#000000" stroke="none">
<path d="M80 275 l-74 -75 74 -75 c48 -48 78 -71 84 -65 6 6 14 6 22 -1 8 -7
14 -7 19 1 5 8 12 7 23 -2 14 -10 15 -10 4 2 -10 12 -2 25 47 75 l60 60 -65
68 c-37 37 -72 67 -79 67 -8 0 -17 5 -20 10 -11 17 -19 12 -95 -65z m96 54 c4
-7 -19 -35 -57 -69 l-64 -58 58 -61 c85 -89 61 -100 -27 -12 l-71 71 70 70
c72 73 79 77 91 59z"/>
<path d="M275 310 c21 -22 41 -40 44 -40 3 0 -13 18 -34 40 -21 22 -41 40 -44
40 -3 0 13 -18 34 -40z"/>
<path d="M373 205 c4 -5 -12 -28 -35 -52 -23 -24 -40 -43 -37 -43 3 0 24 20
48 44 32 33 39 46 29 51 -7 5 -10 4 -5 0z"/>
</g>
</svg>
