<?xml version="1.0" encoding="UTF-8"?>
<svg version="1.1" viewBox="0 0 2048 2048" width="1280" height="1280" xmlns="http://www.w3.org/2000/svg">
<path transform="translate(1709,728)" d="m0 0h8l10 3 8 6 5 6 4 11 1 23 3 14 6 14 8 11 7 7 10 7 12 6 15 5 31 5 14 5 11 7 11 11 7 11 9 21 8 14 8 9 8 5 6 2 10 1 16-3 7-2h12l10 5 6 7 3 10v7l-2 7-6 8-5 4-6 2h-13l-8-4-7-7-7-9-10-7-8-3h-16l-15 5-15 9-14 9-12 5-9 2h-21l-17-5-11-7-12-11-8-11-5-13-3-17 1-12 5-26v-24l-4-17-7-14-7-9-7-7-14-9-21-8-8-6-6-9-3-8v-10l4-10 4-6 7-6 7-3z" fill="#0E035D"/>
<path transform="translate(799,878)" d="m0 0h12l14 3 11 6 6 5 3 5 2 14 13 164 1 13 5 2 9 6 4 4-1 4-4 3-8 2h-19l-14-4-11-8-9-11-9-17-13-40-4-6v-2l-7 2-7 8-24 42-10 13-9 10-10 7-8 3h-9l-5-5-1-2v-21l2-18 7-32 11-32 11-27 9-20 8-16 9-16 12-17 7-8 12-9 10-4zm-15 50-8 4-5 5-8 11-5 11-3 9-2 14v9l2 11 4 6 4 3 9 1 8-4 8-9 7-12 4-10 3-17v-14l-2-8-4-7-6-3z" fill="#40403F"/>
<path transform="translate(445,862)" d="m0 0 7 2 3 3v8l-7 17-12 28-16 47-11 39-8 32-8 42-5 38-3 34-1 27v14l2 35 2 24-1 12-5 8-5 4-6 2h-13l-7-4-6-8-3-6-1-5v-11l5-50 1-20v-22l-2-30-8-48-9-44-11-41-11-27-5-9v-2l-4-2-11-5-27-6-4-2-4-6 1-4 7-8 14-8 18-8 17-4 10-1h11l7 3 4 4 5 12 3 11 7 49 7 62 3 13 3 6 4 1 5-7 10-30 17-69 16-63 5-12 7-9 8-5z" fill="#0F045D"/>
<path transform="translate(963,863)" d="m0 0h10l10 5 7 8 6 11 4 11 2 14v20l15-9 16-6 14-3h23l7 4 1 5-4 6-9 10-10 9-8 7-10 9-13 16-8 14-5 11-6 18-4 20-2 18v41l-3 5-3 3-5 1h-7l-9-2-9-7-6-8-5-12-4-18-3-26-1-17-1-31v-38l2-57 2-13 4-10 4-5z" fill="#40403F"/>
<path transform="translate(639,876)" d="m0 0h20l4 2 2 5-1 6-6 4-25 5-16 6-15 9-13 12-9 14-6 14-4 13-3 19-1 24 2 18 4 15 7 13 10 10 12 6 8 2h15l24-4h12l2 5-3 6-10 7-21 8-19 4-20 2h-13l-18-2-12-3-19-9-11-9-7-8-8-14-5-15-1-5-1-20 2-21 5-19 6-15 7-13 12-16 13-13 13-10 14-9 15-8 24-9 15-4z" fill="#40403F"/>
<path transform="translate(211,876)" d="m0 0h20l5 3 1 2v6l-5 5-12 3-18 4-15 6-14 9-9 8-8 10-8 16-5 15-3 17-1 8v31l4 20 7 14 9 10 9 6 13 4h15l24-4h12l2 2-1 6-5 6-14 7-18 6-15 3-20 2h-13l-18-2-12-3-17-8-9-7-7-6-7-10-6-12-4-14-1-7v-25l3-19 6-20 8-16 7-11 9-11 10-10 13-10 15-10 16-8 20-8 18-5z" fill="#40403F"/>
<path transform="translate(1194,800)" d="m0 0h13l6 4 3 5 1 9-5 21-6 26-8 45-1 9v18l3 6 4 3 4 1h9l19-2h15l5 4 2 8-3 6-7 6-25 6-16 3-6 3-5 8-2 8-1 9-1 20v34l2 33 4 32v11l-5 5-3 2-11 1-9-2-8-6-4-7-3-17-1-12v-66l1-30-2-11-4-6-5-3h-10l-15 3h-10l-5-4-1-2v-11l4-8 7-6 13-4 21-3 5-5 4-9 6-28 8-59 5-24 4-10 7-9 5-4z" fill="#40403F"/>
<path transform="translate(1357,866)" d="m0 0h21l12 3 9 6 7 8 4 13v16l-2 12-5 9-5 4h-7l-4-7-2-24-5-10-5-3h-7l-6 4-6 9-4 15-2 14-1 15v31l3 42 3 31 1 17-2 14-5 10-5 6-12 6-14 2h-9l-15-3-12-6-13-11-7-9-4-9v-9l5-6 2-1h6l8 5 8 11 9 16 8 7 4 2h6l4-4 1-3v-16l-5-43-6-50-2-27v-20l3-19 5-14 6-11 9-10 10-7 12-5z" fill="#40403F"/>
<path transform="translate(1720,960)" d="m0 0h20l12 4 12 9 7 7 7 14 2 9v14l-3 11-5 10-9 10-11 7-7 3-17 2-18 2-12 4-12 7-9 9-6 10-4 12-2 13-5 7-7 3-9-1-6-4-3-5-1-8 4-8 6-4 9-4 14-9 8-9 5-10 3-13v-19l-3-15v-16l4-13 6-10 5-6 11-8 10-4z" fill="#0E045D"/>
<path transform="translate(1800,726)" d="m0 0 10 1 9 4 8 7 5 9 4 13 5 8 8 4h9l20-7h10l11 4 7 6 5 8 2 6v12l-4 10-7 8-7 4-7 2h-11l-10-4-8-7-5-10-4-12-4-6-3-3-6-2h-10l-15 6-4 1h-12l-10-4-8-7-5-10-2-8 1-9 4-10 5-6 10-6z" fill="#0F045D"/>
<path transform="translate(1682,838)" d="m0 0 13 1 11 4 6 4 7 6 6 9 4 10 1 5v11l-3 12-6 10-6 7-12 7-11 3h-12l-12-3-10-6-8-8-7-14-2-7v-12l3-10 6-11 5-6 10-7 11-4z" fill="#0F045D"/>
<path transform="translate(1576,844)" d="m0 0h10l10 4 7 6 5 9 1 5-1 13v16l3 11 5 10 8 11 9 9 15 7 8 4 5 5 4 8v12l-4 8-8 7-6 2h-12l-8-4-7-8-2-6v-24l-3-12-8-14-9-11-13-9-18-6-9-8-5-11v-12l4-9 7-8 8-4z" fill="#0F045D"/>
<path transform="translate(1857,1010)" d="m0 0h11l8 3 6 5 7 10 8 5h11l7-4 9-8 6-3h13l6 3 5 5 4 8v9l-3 7-5 5-6 4-10 1-9-3-5-4-7-8-6-4-8-1-10 4-8 9-5 12-1 7 3 10 3 4v2l4 2 8 8 2 4v10l-5 7-6 3-7 1-7-3-5-5-2-5 1-9 5-14v-9l-5-10-7-7-11-7-6-8-2-5v-13l4-8 7-7z" fill="#10055D"/>
<path transform="translate(1686,1212)" d="m0 0 42 5 13 1h47l37-4 8-1h11l5 5 1 2v7l-6 9-9 3-29 4-24 2h-39l-30-3-25-4-7-6-3-7 1-6 5-6z" fill="#414140"/>
<path transform="translate(1685,1248)" d="m0 0 11 1 31 4 24 2h26l33-3 31-4 6 3 3 5v7l-6 9-9 3-29 4-25 2h-36l-31-3-22-3-7-3-5-6-2-5 1-6z" fill="#414140"/>
<path transform="translate(1559,935)" d="m0 0h12l10 5 6 7 3 6v14l-7 16-2 12 3 13 6 10 9 8 8 7 4 8v9l-4 8-8 7-7 2-9-1-9-6-5-10v-9l6-18v-11l-4-13-6-8-7-6-11-7-5-7-2-6v-10l3-8 6-7z" fill="#0F045D"/>
<path transform="translate(1762,1074)" d="m0 0 11 1 10 5 6 7 4 9 1 13 4 12 7 11 9 10 7 7 14 9 11 4 6 3 3 3 1 9-7 8-6 1-7-3-10-19-11-12-9-8-11-7-13-5-6-1h-15l-9-3-10-9-4-7-1-4v-11l3-8 6-8 8-5z" fill="#0F055D"/>
<path transform="translate(1699,1286)" d="m0 0 18 2 20 2 18 1h21l28-2 21-3h5l-6 11-11 13-14 8-11 3h-49l-10-3-11-6-9-9-9-13z" fill="#414140"/>
<path transform="translate(1625,771)" d="m0 0h18l8 4 8 8 5 12v11l-5 12-7 7-8 4-4 1h-13l-9-4-8-7-6-12v-13l4-9 7-8 5-4z" fill="#0F045D"/>
<path transform="translate(1938,836)" d="m0 0 11 2 8 5 7 8 3 8v12l-4 9-7 8-8 4-13 1-10-3-8-6-5-9-2-8 1-10 4-8 5-6 9-5z" fill="#0F045D"/>
<path transform="translate(1682,1164)" d="m0 0h6l6 4 2 3v7l-6 7-7 1-6-3-3-4v-8l5-6z" fill="#12075C"/>
<path transform="translate(1698,1221)" d="m0 0 19 4 24 4 22 2h8l-2 2-10 1h-21l-27-3-15-3v-6z" fill="#FDFDFD"/>
<path transform="translate(1697,1258)" d="m0 0 6 1 25 5 11 2v1h-16l-25-3-2-2z" fill="#FDFDFD"/>
</svg>
