<?xml version="1.0" encoding="UTF-8"?>
<svg version="1.1" viewBox="0 0 1600 714" width="1280" height="1280" xmlns="http://www.w3.org/2000/svg">
<path transform="translate(548,434)" d="m0 0h1039v96h-1039z" fill="#0D435F"/>
<path transform="translate(107,5)" d="m0 0v3l-5 13-1 5v23l4 18 8 20 9 17 8 12 9 12 11 13 11 12 21 21 8 7 10 9 11 9 14 12 14 11 13 11 11 9 13 11 11 9 13 11 14 12 16 15 25 25 9 11 10 12 13 19 9 16 8 19 6 21 2 8 6-21 1-5v-20l-4-17-6-13-8-14-11-14-14-15-8-8-8-7-15-13-13-11-14-11-10-9-8-7-12-11-7-7-9-11-9-14-5-13-2-11v-15l4-20 6-17 12-23 10-14h1v17l2 12 5 13 8 13 9 11 17 17 11 9 14 11 18 14 16 12 14 12 10 9 7 7 13 17 9 16 7 19 3 14 1 9v19l-3 21-7 25-10 24-14 27-5 8v33l-3 24-6 25-7 21-11 24-11 19-11 16-9 11-9 10-11 11v-3l7-8 11-15 11-18 8-16 7-19 4-19 1-10v-14l-2-16-6-21-8-18-9-16-12-17-9-11-12-14-11-11-4-5-8-7-11-11-8-7-10-9-11-9-11-10-11-9-14-12-11-9-15-13-14-11-14-12-11-9-15-13-13-12-12-11-4-3-14 9-11 9-12 12-10 14-9 16-7 19-5 21-2 17v23l3 24 5 22 8 23 9 20 8 14 11 14 9 10 8 7 10 9 14 11 21 16 19 14 13 10 16 13 11 10 8 7 9 9 9 11 11 15 10 19 7 21 3 20v19l-2 14-4-5-12-16-8-10-12-14-21-21-11-9-15-12-33-22-24-15-20-13-17-12-13-11-8-7-13-12-7-8-12-15-10-15-10-17-8-19-6-20-3-15-2-18v-22l3-25 6-25 8-21 8-16 9-15 12-16 11-12 12-12 16-12 15-9 12-6h2l-3-5-10-11-12-16-9-15-8-17-5-17-2-15v-13l3-22 6-21 8-20 9-17 12-18z" fill="#03596B"/>
<path transform="translate(1452,224)" d="m0 0h53v174h-53l-1-17-7 6-10 6-15 5-10 2-170 1h-151l-16-2-16-5-13-7-12-12-6-10-4-10-2-10v-22l4-16 7-13 12-12 16-8 15-4 8-1h321l19 3 16 6 10 6 4 3zm-297 78-57 1-11 4-8 7-5 9-1 4v14l4 10 7 8 9 5 6 2 22 1 206 1h73l17-1 12-3 11-6 7-7 4-8 1-3v-11l-4-9-6-7-10-6-8-3-10-2z" fill="#0C425E"/>
<path transform="translate(196,308)" d="m0 0 1 3-1 7v8l3 12 5 9 11 12 14 13 11 9 10 9 11 9 14 12 10 8 11 9 13 11 12 11 10 11 8 13 5 13 4 20 1 10v19l-3 15-6 16-14 28-9 15-20 30-12 17-3 2v-15l-2-14-6-18-9-16-9-11-9-10-8-8-11-9-16-13-20-15-16-13-13-11-7-9-3-10v-12l4-14 9-17 10-13 2 2 4 11 10 13 12 11 19 14 18 13 17 13 11 9 15 14 9 11 7 10 8 15 5 14v-9l-2-15-5-16-7-14-10-14-11-12-12-12-11-9-18-14-21-16-13-10-12-11-13-13-9-14-5-12-1-5v-17l4-14 8-16 10-16z" fill="#03596B"/>
<path transform="translate(114,215)" d="m0 0 5 5v2l-14 9-11 9-12 12-10 14-9 16-7 19-5 21-2 17v23l3 24 5 22 8 23 9 20 8 14 11 14 9 10 8 7 10 9 14 11 21 16 19 14 13 10 16 13 11 10 8 7 9 9 9 11 11 15 10 19 7 21 3 20v19l-2 14-4-5-12-16-8-10-12-14-21-21-11-9-15-12-33-22-24-15-20-13-17-12-13-11-8-7-13-12-7-8-12-15-10-15-10-17-8-19-6-20-3-15-2-18v-22l3-25 6-25 8-21 8-16 9-15 12-16 11-12 12-12 16-12 15-9 12-6h2z" fill="#03596B"/>
<path transform="translate(288,90)" d="m0 0h1v17l2 12 5 13 8 13 9 11 17 17 11 9 14 11 18 14 16 12 14 12 10 9 7 7 13 17 9 16 7 19 3 14 1 9v19l-3 21-7 25-10 24-14 27-5 8v33l-3 24-6 25-7 21-11 24-11 19-11 16-9 11-9 10v-3l10-13 12-19 10-18 10-25 5-16 3-18v-30l-2-19-5-19-8-21-12-23-10-15-12-16-12-14-12-13-11-10v-2l-4-2-5-5-13-12-11-9-8-7h3l11 9 10 8 5 5 9 7 9 9 1 2 7 4 6 2 1 1 10 2 1-4 2-5 2-6-3-8-2-4 1-6 7 6 10 11 11 14 13 18 10 18 8 19 6 21 2 8 6-21 1-5v-20l-4-17-6-13-8-14-11-14-14-15-8-8-8-7-15-13-13-11-14-11-10-9-8-7-12-11-7-7-9-11-9-14-5-13-2-11v-15l4-20 6-17 12-23z" fill="#03596B"/>
<path transform="translate(549,227)" d="m0 0h58l1 1v62h126v-62l1-1h58v173h-59v-68h-126v68h-59z" fill="#0C425E"/>
<path transform="translate(815,270)" d="m0 0h117l20 3 14 4 8 4 7 6 5 8 2 8 1 60 1 2 11 1v35l-39 1-12-1-8-5-4-8v-3l-9 7-14 7-16 4-10 1h-24l-14-2-12-4-10-6-7-7-6-12-1-5v-14l3-10 6-8 8-6 14-5 16-3 63-6 9-2 1-2v-6l-5-3-8-2-13-1h-93l-1-1zm115 71-51 8-10 4-3 4v7l5 7 7 3 5 1h14l14-3 12-6 9-8 4-8v-9z" fill="#0D425E"/>
<path transform="translate(176,431)" d="m0 0 2 2 4 11 10 13 12 11 19 14 18 13 17 13 11 9 15 14 9 11 7 10 8 15 5 14 1 3-1 20-7 23-16 23-7 9-1-2v-13l-2-14-6-18-9-16-9-11-9-10-8-8-11-9-16-13-20-15-16-13-13-11-7-9-3-10v-12l4-14 9-17z" fill="#027171"/>
<path transform="translate(1530,275)" d="m0 0h57v124l-1 1h-55l-1-1z" fill="#0C435F"/>
<path transform="translate(153,531)" d="m0 0 9 6 21 16 14 11 14 12 13 12 7 7 9 11 11 15 10 19 7 21 3 20v19l-2 14-4-5-12-16-8-10-12-14-21-21-22-18h3l14 10 8 5 5 5 4 1-4-10-6-8-4-6-1-5-5-4-1-4h-2l-3-4-3-1-4-4v-2l-6-2-1-2-3-1-1-2-3-1-5-5-35-24-9-6-2-3 15 2 13-5 5-2v-5l-5-7z" fill="#0CA689"/>
<path transform="translate(272,299)" d="m0 0 4 2 20 16 5 5 9 7 9 9 1 2 7 4 6 2 1 1 10 2 1-4 2-5 2-6-3-8-2-4 1-6 7 6 10 11 11 14 13 18 10 18 8 19 6 21 2 11 1 5 8-21 5-14 4-19 1-8v-28l-1-13h1l2 12v35l6-3 4 1 1 3-10 25-10 20-10 17v33l-3 24-6 25-7 21-11 24-11 19-11 16-9 11-9 10v-3l10-13 12-19 10-18 10-25 5-16 3-18v-30l-2-19-5-19-8-21-12-23-10-15-12-16-12-14-12-13-11-10v-2l-4-2-5-5-13-12-11-9-8-7z" fill="#10A88B"/>
<path transform="translate(176,431)" d="m0 0 2 2 4 11 10 13 12 11 19 14 18 13 13 10 1 1v5l-2 1 2 4-4-1h-3l-3-2-4 4-3-1-2 7 12 9-1 2 3 3v8l-2 3h-6l-1-3h-7l-4-3-10 1 2 2h-2l2 2 2 4 10 9-2 1-14-11-15-12-12-9-14-11-14-12-7-9-3-10v-12l4-14 9-17z" fill="#03596B"/>
<path transform="translate(396,229)" d="m0 0h2l1 5 1-3 4 1 8 7 8 8 13 17 9 16 7 19 3 14 1 9v19l-3 21-5 19h-3l-4 1-5 1-1-35-1-12h-2l-6-20-10-19-10-13-9-10-10-10 1-2-5-1 1-2-11-8v-3l13-4 8-7 2-2 2 1 2-5-2-1z" fill="#027171"/>
<path transform="translate(344,372)" d="m0 0 4 1 8 10 7 10 10 16 10 19 9 24 4 16 2 19v30l-4 22-8 23-9 20-13 22-12 17-5 6-3 5-8 8v-3l7-8 11-15 11-18 8-16 7-19 4-19 1-10v-14l-2-16-6-21-8-18-9-16-12-17-18-22-4-9-4-6 7 1v-3l7-1 3 4h4l1 5h10l-3-12-4-8-2-2z" fill="#027272"/>
<path transform="translate(114,215)" d="m0 0 5 5v2l-14 9-11 9-12 12-10 14-8 14-4 2-6 5-9 13-8 16-8 19-6 16-9 29-4 14-1 3-1 16-2 17-2 3-2-7-2-18v-22l3-25 6-25 8-21 8-16 9-15 12-16 11-12 12-12 16-12 15-9 12-6h2z" fill="#027B88"/>
<path transform="translate(280,267)" d="m0 0 4 1 2 3 5-1 2 1v-2l4 1 12 11 8 7 12 11 16 16v7l3 7 2 7-3 5-1 4-2 4-10-1-2-2-6-2-7-4-7-8-14-12v-2l-5-2-10-9-9-7-1-2-5-1v-3l-4-3v-2l-4-2-5-4v-2l13-1 6-4 4-4z" fill="#027071"/>
<path transform="translate(96,489)" d="m0 0 4 1 7 3 7 7 11 9 18 14 10 7 2 10 5 7-1 5-9 5-9 3-10-1-9-3-10-7-13-10-9-8 1-2-8-7-3-4-6-9 4-2 5-5 7-4 3-3 2 1 1-2 1-1z" fill="#027171"/>
<path transform="translate(271,451)" d="m0 0 5 2 10 8 5 3 9 8v2l9 1 5-4 5-5 1-12 3-2 8 9 8 13 5 13 4 20 1 10v19l-3 15-6 16-14 28-8 13-1-2 6-19 4-19 1-8v-19l-2-16-6-18-8-15-11-14-5-5-10-9-15-12z" fill="#0B9282"/>
<path transform="translate(1493,456)" d="m0 0h16l4 8 12 30 4-8 12-30h17v57h-14l-1-31-11 30-1 1h-12l-12-32v32h-14z" fill="#FEFEFE"/>
<path transform="translate(430,336)" d="m0 0h1l2 12v35l6-3 4 1 1 3-10 25-10 20-10 17v33l-3 24-6 25-7 21-11 24-11 19-11 16-9 11-9 10v-3l10-13 12-19 10-18 10-25 5-16 3-18v-30l-2-19-5-19-4-11 1-3 4 6h7l6-4 3-7h2v-7h1l2 11 1 5 8-21 5-14 4-19 1-8v-28z" fill="#18B799"/>
<path transform="translate(109,564)" d="m0 0 4 1 5 2 4-1 4 4 3-5 5 3 3-3 35 24 5 4v2l4 1v2l4 1v2l4 1 2 1v2l4 2v2l4 1 2 4h2l3 5 5 5 1 5 10 14 2 4v4l-5-1-8-7-10-6-9-7-5-2-17-12-17-11-24-15-2-1-1-3-14-9 2-2-3-2v-2l-6-2 1-2-2-2z" fill="#027071"/>
<path transform="translate(107,5)" d="m0 0v3l-5 13-1 5v23l1 8-5 4-3 6-6 24-3 19-1 13-1 39 2 13-3-1-10-21-5-17-2-15v-13l3-22 6-21 8-20 9-17 12-18z" fill="#027B88"/>
<path transform="translate(415,302)" d="m0 0h2l8 17 5 17 2 13v28l-3 19-3 12-4 10-8 21-2 2-1-7 7-24 1-5v-20l-4-17-6-13-7-12-3-7-8-10v-2l-4-4v-3-1l5-1 3-3 5 1 3 2 7-3 3-3-1-3z" fill="#037373"/>
<path transform="translate(901,456)" d="m0 0h14l8 11 13 20 2 3 1-34h14v57h-15l-22-33-1 33h-14z" fill="#FEFEFE"/>
<path transform="translate(1010,456)" d="m0 0h14l22 33 1-33h14v57h-14l-8-11-13-20-1-2-1 33h-14z" fill="#FEFEFE"/>
<path transform="translate(836,456)" d="m0 0h29l8 3 5 5 3 7-1 10-7 8-5 1 13 22v1h-16l-12-21h-2l-1 21h-14z" fill="#FEFEFE"/>
<path transform="translate(1530,227)" d="m0 0h57v35l-1 1h-56z" fill="#0C435F"/>
<path transform="translate(310,493)" d="m0 0 5 2 8 17 5 17 1 12v19l-3 19-6 21-3 10-9 13-1-2 5-17 1-20v-12l-2-15-5-16-7-14-7-10-3-9-1-5h5l5-2 2 4h7l2-4z" fill="#027272"/>
<path transform="translate(1107,455)" d="m0 0h7l11 3 9 8 3 6v2h-16l-4-4-3-1h-8l-6 3-3 5-1 4v8l4 8 5 3 8 1 8-3 4-7h-17v-10h30v14l-4 8-8 7-7 3-5 1h-8l-10-3-8-6-5-8-2-7v-11l4-11 6-7 10-5z" fill="#FEFEFE"/>
<path transform="translate(272,299)" d="m0 0 4 2 20 16 5 5 9 7 9 9 1 2 7 4 6 2 1 1 10 2 1-4 2-5 2-6-3-8-2-4 1-6 7 6 10 11 11 14 7 10v22l-4 4-7 4-6-1-8-5v-2l-4-1-9-11-9-10-7-8-8-8-5-4v-2l-4-2-5-5-13-12-11-9-8-7z" fill="#068F7F"/>
<path transform="translate(781,456)" d="m0 0h17l17 47 3 10h-14l-4-9h-21l-3 9h-15l3-10z" fill="#FEFEFE"/>
<path transform="translate(153,531)" d="m0 0 9 6 21 16 10 8 1 8 1 9v2l-8 4h-21l-12-6-11-8-10-7-5-3-2-3 15 2 13-5 5-2v-5l-5-7z" fill="#079080"/>
<path transform="translate(288,424)" d="m0 0 5 1 10 9 11 9 8 8-1 3-1 12-5 5-6 5-9-2-4-5-7-6-5-3-11-8-4-4-7-5 3-3 6-4 7-5 2-2 1 1 2-2 3-1 1-1z" fill="#027171"/>
<path transform="translate(1201,455)" d="m0 0h9l9 3 5 4 3 6v4h-15l-2-4-7-1-3 3 1 5 19 8 6 5 2 4v8l-4 8-8 5-4 1h-10l-11-4-5-6-1-8h14l3 5 7 1 3-2v-7l-9-3-12-5-5-5-1-3v-10l3-5 6-5z" fill="#FEFEFE"/>
<path transform="translate(1329,455)" d="m0 0h9l9 3 5 4 3 6v4h-15l-2-4-7-1-3 3 1 5 19 8 6 5 2 5v7l-4 8-8 5-4 1h-10l-11-4-5-6-1-8h14l3 5 7 1 3-2v-7l-9-3-12-5-5-5-1-3v-10l4-6 5-4z" fill="#FEFEFE"/>
<path transform="translate(288,90)" d="m0 0h1v21l-5 5-3 5-5 18-3 16-1 19 1 15 3 20 6 16-1 3-9-11-9-14-5-13-2-11v-15l4-20 6-17 12-23z" fill="#027B88"/>
<path transform="translate(413,295)" d="m0 0 5 5 6 12 6 2 7-6 5-4 3-8h3l4 17 1 9v19l-3 21-5 19h-3l-4 1-5 1-1-35-1-12h-2l-6-20-10-19z" fill="#0DA78A"/>
<path transform="translate(243,611)" d="m0 0 4 4 9 15 7 15 5 16 3 20v19h-1l-1-13-6-1-1 1 1 7 1 6-3-4-7-16-10-18-7-10v-2l-4-1-2-3v-4h-3l-4-7-4-2-3-5-9-9h3l5 5 6 3 7 5 6 2v2h2v-2l4-1 1 2 2-1-1-10-2-9 2-1z" fill="#1EB89B"/>
<path transform="translate(1436,456)" d="m0 0h36v11l-21 1-1 11h19v11h-19l1 12h20l1 1v10h-36z" fill="#FEFEFE"/>
<path transform="translate(572,456)" d="m0 0h36v11l-21 1-1 11h19v11h-19l1 12h20l1 1v10h-36z" fill="#FEFEFE"/>
<path transform="translate(304,561)" d="m0 0 3 4 6 16 1 3-1 20-7 23-16 23-7 9-1-2 5-13 4-18v-15l-2-8-1-13-2-7-3-9 10 1 4-4h2l1-5 2-3h2z" fill="#13A98D"/>
<path transform="translate(708,456)" d="m0 0h35v11h-21v12h19v10l-1 1h-18v12h21v11h-35z" fill="#FEFEFE"/>
<path transform="translate(1244,456)" d="m0 0h16l10 21v2h2l1-5 8-17 1-1h15l-2 6-14 27-2 4-1 20h-14l-1-19-19-37z" fill="#FEFEFE"/>
<path transform="translate(315,495)" d="m0 0h2l7 16 4 10 1 1h7l5-3 4-4h2v-8h1l1 10v19l-3 15-6 16-14 28-8 13-1-2 6-19 4-19 1-8v-19l-2-16-6-18-5-10z" fill="#42BEB0"/>
<path transform="translate(204,616)" d="m0 0 4 2 12 12v3l4 1 4 5v3h3l3 7 3 1 11 17 11 21 4 9-2-5v-5l2-2 4 1 3 3v21l-2 4-11-16-11-14-13-15-21-21-22-18h3l14 10 8 5 5 5 4 1-4-10-6-8-4-6-1-5-5-4z" fill="#05827F"/>
<path transform="translate(1373,456)" d="m0 0h45v11l-15 1-1 45h-14v-46h-15z" fill="#FEFEFE"/>
<path transform="translate(255,506)" d="m0 0 8 6 10 9 8 7 2 6-2 13-5 5h-5l-10-9-4-2-6-5-5-2 1-2-8-6-5-4h2l1-6 2-1v2l7-5 3 3 4-1-1-3h3z" fill="#027171"/>
<path transform="translate(396,468)" d="m0 0h1v6h2l1 10 7-2 6-1v9l-4 23-7 25-8 20-9 19-13 21-10 14-12 14-4 3 2-4 13-18 12-20 8-16 8-20 5-16 3-18v-30l-1-6z" fill="#46C0B1"/>
<path transform="translate(658,456)" d="m0 0h14v47h18v10h-32z" fill="#FEFEFE"/>
<path transform="translate(384,263)" d="m0 0 4 2 14 12 11 13 6 1 8-9h2l3-16 3 1 8 16 4 10-2 5-3 7-5 4-7 6-6-2-8-14-3-3-4-5-12-14-13-13z" fill="#048E7E"/>
<path transform="translate(107,5)" d="m0 0v3l-5 13-1 5-1 16h-1l-1-12-6 10-9 24-8 30-3 17-3 29-2-4-2-15v-13l3-22 6-21 8-20 9-17 12-18z" fill="#10B496"/>
<path transform="translate(974,456)" d="m0 0h14v57h-14z" fill="#FEFEFE"/>
<path transform="translate(121,114)" d="m0 0h3l2 4h4l5 5 8 10v4l3 5 2 4 5 6-1 6-5-5h-3l-2 4-3-1-2 5h-2l-3-6h-3l-5-12-1-1-1-9h-1l-1-8h-1v-8z" fill="#0C415E"/>
<path transform="translate(968,567)" d="m0 0h9l9 4 4 5 1 3h-8l-5-4-2-1h-7l-6 3-3 5-1 8 3 8 4 3 9 1 6-3 3-4 1-4h-15v-5h22v9l-4 7-6 5-7 2-10-1-8-5-5-8-1-9 3-9 5-6 5-3z" fill="#0C4963"/>
<path transform="translate(72,242)" d="m0 0v3l-10 11-12 17-16 26-9 17-10 22-7 18-2 3h-2l2-12 5-17 8-19 8-16 12-18 8-10 9-10 13-13z" fill="#038E88"/>
<path transform="translate(627,567)" d="m0 0h10l8 4 6 7 2 6v8l-3 8-8 7-7 2h-7l-9-4-6-7-2-6v-9l4-8 7-6zm0 6-6 4-3 6v9l3 6 5 4 2 1h8l6-4 3-4 1-3v-8l-4-8-6-3z" fill="#0C4A63"/>
<path transform="translate(380,358)" d="m0 0 4 4 8 13-1 21-4 4-5 1v2l-2 1h-6l-4-4-5-2-7-11-5-6v-2h2l1 2 9 5 6-1 7-4 1-2v-16z" fill="#0C9B86"/>
<path transform="translate(849,568)" d="m0 0h21l6 3 6 7 2 5v10l-3 7-7 6-5 2h-20zm7 5v30h11l6-3 3-4 1-3v-10l-3-6-4-3-3-1z" fill="#0C4661"/>
<path transform="translate(748,568)" d="m0 0h21l6 5 2 5-1 7-4 5-4 1 6 11 3 6h-8l-9-15-5-1v16h-7zm7 5v14h10l5-5-1-7-3-2z" fill="#0B4661"/>
<path transform="translate(193,562)" d="m0 0 4 2 11 9v8l2 4-1 5-2 3-8 3h-13l-3-1h-6l-5-5-11-8h3l2 1h21l6-3h2l-1-7-2-10z" fill="#0C9A86"/>
<path transform="translate(1406,568)" d="m0 0h20l8 4 5 6 2 8-1 9-3 6-6 5-5 2h-20zm6 5v30h11l6-3 4-5 1-10-3-7-5-4-2-1z" fill="#0C4560"/>
<path transform="translate(272,299)" d="m0 0 4 2 20 16 5 5 9 7 9 9 1 2 7 4 6 2 1 1 10 2 1-4 2-5 2-6-3-8-2-4 1-6 7 6 5 6v9l2 6v6l-4 4-8 4-10-1-2-2-6-2-11-11-5-4v-2l-4-2-5-5-13-12-11-9-8-7z" fill="#04827C"/>
<path transform="translate(289,538)" d="m0 0 5 5 9 14 1 6h-2l-2 5-1 3-5 2-1 3-7-1-4-1-6-10-7-9 3-1 3 2 6-1 4-5z" fill="#048F7F"/>
<path transform="translate(1353,567)" d="m0 0h7l4 9 11 30v2h-7l-3-7-17-1-2 8h-8l12-34zm3 10-6 17 1 1h12l-2-9-4-9z" fill="#0D4963"/>
<path transform="translate(1133,567)" d="m0 0h7l4 9 11 31v1h-7l-3-7h-17l-3 7h-7l10-29zm3 9-6 17v2h13l-3-11-3-8z" fill="#0C4862"/>
<path transform="translate(397,487)" d="m0 0h1v30l-4 22-8 23-9 20-13 22-12 17-5 6-3 5-8 8v-3l7-8 11-15 11-18 8-16 7-19 4-19 1-10 2 2 7-21 1-21z" fill="#078781"/>
<path transform="translate(683,568)" d="m0 0h7l1 30 2 3 9 1 4-2 1-2 1-30h7v30l-4 7-5 3-4 1h-7l-8-4-4-8z" fill="#0B4863"/>
<path transform="translate(290,591)" d="m0 0 2 3 2 6 1 8 5-1 6-4 5-1v9l-5 16-16 23-7 9-1-2 5-13 4-18v-26z" fill="#41BEB0"/>
<path transform="translate(1275,568)" d="m0 0h6v17h20v-17h6v40h-6l-1-17h-18l-1 17h-6z" fill="#0C425E"/>
<path transform="translate(268,123)" d="m0 0h2l-1 14-3 18-1 11 1 22 3 17 1 6-3-1-7-14-3-11-1-6v-15l4-20 6-17z" fill="#038D88"/>
<path transform="translate(342,484)" d="m0 0 2 3 3 13v15l-8 7-3 1h-7l-3-3-6-16v-2h9l3-1v-2l5-2 3-9z" fill="#08A587"/>
<path transform="translate(430,336)" d="m0 0h1l2 12v35l6-3 4 1 1 3-10 25-10 20-10 17-2-3 3-9 7-19 4-11 4-19 1-8v-28z" fill="#59C6B9"/>
<path transform="translate(98,29)" d="m0 0h1v11l-4 4-5 11-6 19-5 24-3 26-2 24v5h-2l-3-9v-16l4-29 8-32 9-25 6-11z" fill="#018C87"/>
<path transform="translate(253,650)" d="m0 0h2v3l4 2 3 5 6 4 2 8 1 9v19h-1l-1-13-6-1-1 1 1 7 1 6-3-4-7-16-4-8v-15l-1-2z" fill="#0FA88C"/>
<path transform="translate(153,531)" d="m0 0 9 6 6 5v9l2 3-1 5-8 5-8 2h-8l-11-2-6-4-2-3 15 2 13-5 5-2v-5l-5-7z" fill="#05827D"/>
<path transform="translate(315,495)" d="m0 0h2l7 16 4 10 1 1h7l5-3 4-4h2v-8h1l1 10v19l-2 3-6 2-4 3-6 1-2-15-2-1-6-20-6-12z" fill="#25BB9E"/>
<path transform="translate(271,451)" d="m0 0 5 2 10 8 5 3 9 8v2l9 1 5-4 5-5 1-12 3-2 8 9-2 9-3 5-10 8-6 1-1-3-3 1-8-6-13-13-14-11z" fill="#04827D"/>
<path transform="translate(451,345)" d="m0 0h1l-1 12-6 24h-3l-4 1-5 1v-33h1v5l9-2 4-3h3z" fill="#10B495"/>
<path transform="translate(413,295)" d="m0 0 5 5 6 12 6 2 7-6 5-4 3-8h3l2 7v7l-3 5-2 6-7 5-8 1-4-2-5-13-8-15z" fill="#139E8A"/>
<path transform="translate(550,568)" d="m0 0h8l8 17 1 1 8-17 1-1h7l-9 19-3 5-1 16h-7l-1-16-12-23z" fill="#0E4B64"/>
<path transform="translate(1061,568)" d="m0 0h29v5h-11v35h-7v-35h-11z" fill="#0A4761"/>
<path transform="translate(311,578)" d="m0 0 3 3-1 23-2 4v-6l-8 4-4 3-5-1-1-8-2-6 1-3 9-1 9-7z" fill="#0CB493"/>
<path transform="translate(357,329)" d="m0 0 5 4 3 5h-2l1 8v9l-5 5-8 4-10-2 8 9-1 3-12-14-5-6 4-1 2 2 10 1 9-5h2v-8l-2-6v-7z" fill="#018C87"/>
<path transform="translate(1185,568)" d="m0 0h7v35h14v5h-21z" fill="#0E4C65"/>
<path transform="translate(384,263)" d="m0 0 4 2 14 12 11 13 6 1 8-9h2l3-16 3 1 3 6v3l-2 1-1 10-10 8-5 3h-5l-2-2-4-5-12-14-13-13z" fill="#04817C"/>
<path transform="translate(168,542)" d="m0 0 9 6-2 1 1 13-4 4-10 4-13 1v2l-5-2-8-6 2-1 7 1h8l10-3 5-3 1-5-2-3v-7z" fill="#048E89"/>
<path transform="translate(251,678)" d="m0 0 5 4 7 15-2-5v-5l2-2 4 1 3 3v21l-2 4-11-16-7-9-1-5 1-2-3-1 1-2z" fill="#08938B"/>
<path transform="translate(337,474)" d="m0 0h2l3 7-1 7-4 9-5 2v2l-3 2h-7l-3-1-2-4v-3l-4-1 1-2 9 1 2-1 1-3 5-1 2-2 3-10z" fill="#079883"/>
<path transform="translate(1471,568)" d="m0 0h7v40h-7z" fill="#135269"/>
<path transform="translate(914,568)" d="m0 0h7v40h-7z" fill="#0B4963"/>
<path transform="translate(429,388)" d="m0 0 1 3-4 17-4 10-8 21-2 2-1-7 7-24 3-10 1-4-1-4 4-2h4z" fill="#088681"/>
<path transform="translate(1023,568)" d="m0 0h7v40h-7z" fill="#114C65"/>
<path transform="translate(298,552)" d="m0 0h2l4 7v4h-2l-2 5-1 3-5 2-1 3-7-1-4-1-3-7 10-1 6-6z" fill="#0C9A86"/>
<path transform="translate(282,530)" d="m0 0 7 7-2 9-3 7-5 4-6-1-5-1-7-8-12-11h3l8 6 7 6 4 3h5l3-1 2-6z" fill="#04817C"/>
<path transform="translate(850,467)" d="m0 0h11l5 3 1 6-3 5-2 1h-12z" fill="#0D4B64"/>
<path transform="translate(378,567)" d="m0 0 5 1-5 12-12 21-14 20-5 6-3 5-8 8v-3l7-8 11-15 11-18 8-16z" fill="#06928A"/>
<path transform="translate(438,274)" d="m0 0 3 4 1 3-3 2-2 9-10 7-2 2-7 1-2-5 7-1 8-7 3-2 1-10 3-1z" fill="#028D87"/>
<path transform="translate(789,472)" d="m0 0 2 2 5 15-1 4-12-1 2-9z" fill="#0D4B64"/>
<path transform="translate(272,299)" d="m0 0 4 2 20 16 5 5 9 7 9 9 7 8 3 3-1 2-10-10-5-4v-2l-4-2-5-5-13-12-11-9-8-7z" fill="#027B87"/>
<path transform="translate(263,685)" d="m0 0 4 1 3 3v18l-3 1-6-16v-5z" fill="#018E86"/>
<path transform="translate(289,538)" d="m0 0 4 4-5 12-5 5-5 1-2-1 3 5-1 3-9-12 3-1 3 2 6-1 4-5z" fill="#119690"/>
<path transform="translate(327,459)" d="m0 0 4 2-2 9-3 5-10 8-6 1-1-3 6-3 8-6z" fill="#018C87"/>
<path transform="translate(290,628)" d="m0 0 1 4-5 18-2 5h-1l-2-23 5-1z" fill="#04847F"/>
<path transform="translate(259,147)" d="m0 0h2l-1 29 1 20-2-3-3-14v-15z" fill="#17B699"/>
<path transform="translate(313,584)" d="m0 0h1l1 15 4 1-2 10-9 13-1-2 5-17z" fill="#058B8A"/>
<path transform="translate(176,594)" d="m0 0 5 2v2l4 1v2l4 1 2 1v2l4 2v2l4 1 2 4h2l3 6-3-1-2-3-3-1v-2l-3-1-5-5h-2l-2-3h-3l-7-8z" fill="#036070"/>
<path transform="translate(419,416)" d="m0 0h3l-3 11-6 14-2-4 2-10 4-9z" fill="#037F88"/>
<path transform="translate(384,263)" d="m0 0 4 2 14 12 10 12 1 7-4-5-12-14-13-13z" fill="#068289"/>
<path transform="translate(271,451)" d="m0 0 5 2 10 8 5 3 9 8 2 6-4-2-13-13-14-11z" fill="#068189"/>
<path transform="translate(358,608)" d="m0 0h2l-2 5-10 13-4 6-8 8v-3l7-8 11-15z" fill="#0F9E91"/>
<path transform="translate(227,662)" d="m0 0 4 2 17 17 2 1 1 6h-2l-9-11-11-12z" fill="#07818B"/>
<path transform="translate(249,535)" d="m0 0 4 2 7 5 7 6 4 3v3l-3 1-7-8-12-11z" fill="#027E86"/>
<path transform="translate(233,561)" d="m0 0 4 1 23 23-1 3-14-15-12-11z" fill="#046775"/>
<path transform="translate(307,329)" d="m0 0 4 1 8 8 7 8 3 3-1 2-10-10-5-4v-2l-4-2z" fill="#20A19B"/>
<path transform="translate(97,536)" d="m0 0 4 2 12 9 3 1v2h3v2l4 1 3 4-4-1-10-7-13-10z" fill="#07828B"/>
<path transform="translate(313,584)" d="m0 0h1l1 15 4 1-1 6-3 2-2-2z" fill="#03867E"/>
<path transform="translate(330,406)" d="m0 0 6 5 11 14 3 4-1 2-11-13-8-10z" fill="#076574"/>
<path transform="translate(157,605)" d="m0 0 8 4 5 3v2l5 2-1 3-16-11z" fill="#096976"/>
<path transform="translate(381,558)" d="m0 0 5 1-1 5-2 4-4-1z" fill="#048289"/>
<path transform="translate(370,590)" d="m0 0 1 2-9 15-3 1 2-5 7-12z" fill="#0B978D"/>
<path transform="translate(413,427)" d="m0 0h2v2l2 1-3 9-2 2-1-7z" fill="#06958A"/>
<path transform="translate(334,356)" d="m0 0 7 6 8 9-1 3-12-14z" fill="#70CEC3"/>
<path transform="translate(143,134)" d="m0 0 9 9-1 2-6-3-3-5-1-2z" fill="#08596C"/>
<path transform="translate(204,616)" d="m0 0 4 2 12 12h-3l-5-5-8-7z" fill="#058389"/>
<path transform="translate(289,591)" d="m0 0 2 4 1 5v11h-1l-2-8z" fill="#12918D"/>
<path transform="translate(345,626)" d="m0 0 2 1-3 5-8 8v-3l7-8z" fill="#19B298"/>
<path transform="translate(114,578)" d="m0 0 9 5 4 3-1 2-12-8z" fill="#025F70"/>
<path transform="translate(109,2)" d="m0 0" fill="#3ABCAD"/>
<path transform="translate(331,643)" d="m0 0" fill="#3ABCAD"/>
<path transform="translate(332,642)" d="m0 0" fill="#3ABCAD"/>
<path transform="translate(333,641)" d="m0 0" fill="#3ABCAD"/>
<path transform="translate(334,640)" d="m0 0" fill="#06A486"/>
<path transform="translate(108,4)" d="m0 0" fill="#027B88"/>
<path transform="translate(110,1)" d="m0 0" fill="#027B88"/>
<path transform="translate(111)" d="m0 0" fill="#3ABCAD"/>
</svg>
