<?xml version="1.0" encoding="UTF-8"?>
<svg version="1.1" viewBox="0 0 1080 1080" width="1280" height="1280" xmlns="http://www.w3.org/2000/svg">
<path transform="translate(769,451)" d="m0 0h22l2 2 1 86 3 5 5 2h17l8-2 2-7 1-49 2-2h18l5 5 1 37 1 9 4 6 6 3h64l1-1v-10l-4-11-9-10-8-5-6-2-19-2-2-2v-15l2-2h31l12 3 10 6 7 6 7 10 7 14 2 7v39l-1 1h-106l-6-4-3-4v-2l-10 8-6 2h-32l-11-3-9-7-6-9-4-11-1-11v-77z"/>
<path transform="translate(640,484)" d="m0 0h8l8 2 2 4v53l-4 9-7 8-10 6-8 2-23 1-4 12-6 10-8 7-10 4-6 1h-12l1-15 2-6 9-3 5-4 2-6h-21l-11-4-6-4-5-5-5-8-3-11v-16l2-11 4-9 6-8 9-6 2-1h54l1 61 5 1 11-2 10-5 2-4 1-50z" fill="#EC2226"/>
<path transform="translate(740,450)" d="m0 0h10l4 3 1 7-1 112-3 10-5 8-9 8-5 2-6 1h-25l-12-3-9-6-6-7-3-7v-46l2-2 17-1 5 2 2 2 1 36 4 8 6 3h9l6-4 3-6 1-116 2-3z" fill="#010000"/>
<path transform="translate(230,449)" d="m0 0h11l5 3 1 1v109l-5 5-5 2-8 1h-30l-11-2-8-4-9-8-6-12-1-4v-30l3-10 7-9 8-6 10-4h13l18 6v-29l3-6zm-25 52-8 4-6 7-2 7v14l3 10 4 5 5 2h21l2-2-1-41-6-5-4-1z" fill="#010000"/>
<path transform="translate(293,482)" d="m0 0h24l10 3 9 6 6 9 3 9 1 15-2 7-3 3-3 1-48 1v6l4 6 2 1 12 1 33 1 4 4v8l-4 5-7 2h-39l-11-2-9-5-8-9-3-8-1-6v-33l4-9 7-8 8-5zm9 18-7 3-5 5-1 3v8l1 1h30l1-1v-8l-3-6-5-4-4-1z" fill="#010000"/>
<path transform="translate(369,483)" d="m0 0h53l7 3 5 6 2 6v64l-4 6-5 2h-47l-9-4-7-6-5-9-1-3v-11l4-10 7-7 9-4 6-1h9l15 3h4l-1-10-6-7-5-2h-11l-14 4h-8l-3-3-1-8 3-7zm20 50-5 5v8l4 6 7 2h16l2-2 1-10-3-5-4-3-3-1z" fill="#010000"/>
<path transform="translate(474,482)" d="m0 0h37l7 4 2 5-1 8-4 4-9-2h-21l-6 2-1 1v7l4 3 21 5 10 5 5 4 5 10v9l-3 8-7 8-8 5-8 2h-36l-7-2-3-4v-7l3-4 3-1 35-1 4-1 1-8-1-4-5-2-26-7-8-5-4-6-1-10 2-12 6-8 9-5z" fill="#030000"/>
<path transform="translate(640,484)" d="m0 0h8l8 2 2 4v53l-4 9-7 8-10 6-8 2-24 1v-22l6 1 11-2 10-5 2-4 1-50z" fill="#010000"/>
<path transform="translate(121,483)" d="m0 0h21l2 3v59l2 5h7l2 3v9l-5 5-10 3-10-1-7-5-3-5-1-4v-70z" fill="#030000"/>
<path transform="translate(566,504)" d="m0 0h11l4 2 1 2v38l-1 1h-20l-5-2-4-6-2-7v-11l4-11 5-4z" fill="#FEFEFE"/>
<path transform="translate(121,589)" d="m0 0h401v3h-401z"/>
<path transform="translate(127,449)" d="m0 0 10 1 6 4 2 5-1 9-5 6-3 1h-11l-5-3-2-3v-14l5-5z" fill="#020000"/>
<path transform="translate(895,451)" d="m0 0h19l2 2 1 12-1 8-2 2-13 1-8-2-1-4v-15l1-3z" fill="#060001"/>
<path transform="translate(825,580)" d="m0 0 14 1 2 3v18l-3 3h-19l-2-3v-19l2-2z" fill="#040000"/>
<path transform="translate(793,580)" d="m0 0h8l7 2 1 2v18l-2 3h-19l-3-3v-18l2-3z" fill="#030000"/>
<path transform="translate(636,442)" d="m0 0h20l2 3v18l-3 3h-18l-3-3v-19z"/>
<path transform="translate(478,610)" d="m0 0h6 3l4 1-1 22-4 5h-11l-1-4 8 1 4-4v-3l-3 2-7-1-4-4v-9l4-5zm1 3-3 3v8l3 3h5l3-4v-7l-3-3z" fill="#110202"/>
<path transform="translate(276,610)" d="m0 0h4l3 11v4h2l1-7 3-8 4 1 4 13 4-13 4-1-2 9-4 11h-4l-4-12-2 3-3 9h-4l-6-18z" fill="#070101"/>
<path transform="translate(245,610)" d="m0 0 4 1 4 13 4-13 4-1 5 14 4-14h4l-3 11-3 9h-4l-5-13-4 12-4 1-4-10z" fill="#0C0101"/>
<path transform="translate(214,610)" d="m0 0 4 1 3 11 1 1 4-12 4-1 4 12 1 1 4-13 4 1-6 19-5-1-3-9v-4h-2l-1 7-3 7h-4l-5-16z" fill="#110202"/>
<path transform="translate(340,601)" d="m0 0h3v29h-3l-1-2-2 2h-8l-4-4-1-8 3-6 3-2h7l1 1 1-9zm-9 12-3 4v6l3 4h6l2-2v-10l-2-2z" fill="#150303"/>
<path transform="translate(412,603)" d="m0 0h6l5 5 1 3v7l-3 7-4 4-9 1v-3l7-2 3-3v-2l-6 1-5-3-1-1v-9l4-4zm0 3-3 4 1 6 3 2 5-1 2-2-1-7-2-2z" fill="#110202"/>
<path transform="translate(354,610)" d="m0 0h7l4 4 1 6-1 1-13 1 2 4 6 1h4v3h-11l-5-5v-9l4-5zm0 3-2 2v3h10l-1-4-1-1z" fill="#110202"/>
<path transform="translate(442,610)" d="m0 0h7l5 4 1 2v8l-2 4-3 2h-9l-5-5-1-6 3-7zm0 3-3 5 1 7 4 3 5-1 2-3v-8l-3-3z" fill="#0E0202"/>
<path transform="translate(372,610)" d="m0 0h8l4 3 1 17-5-1-1 1h-8l-2-2v-7l4-3 8-1-2-3h-8l-1-3zm4 10-4 3 2 5 5-1 2-2v-5z" fill="#0F0202"/>
<path transform="translate(393,610)" d="m0 0h7l1 3-7 1-1 3 6 2 3 3-1 7-2 1h-9l-1-3h9l-1-4-7-4-1-4 2-4z" fill="#140303"/>
<path transform="translate(460,610)" d="m0 0h3l1 2 2-2h4v3l-5 1-1 16h-4z" fill="#1A0304"/>
<path transform="translate(316,610)" d="m0 0h4v20h-4z" fill="#020000"/>
<path transform="translate(429,625)" d="m0 0 3 1v4l-5-1z" fill="#170303"/>
<path transform="translate(308,625)" d="m0 0 3 1v4l-5-1z" fill="#170303"/>
<path transform="translate(316,603)" d="m0 0h4l-1 4h-3z"/>
</svg>
