<?xml version="1.0" encoding="UTF-8"?>
<svg version="1.1" viewBox="0 0 1080 1080" width="1280" height="1280" xmlns="http://www.w3.org/2000/svg">
<path transform="translate(0)" d="m0 0h1080v1080h-1080z" fill="#F6F6F6"/>
<path transform="translate(220,498)" d="m0 0h9l13 4 9 6 9 9 8 13 11 25 11 28 17 45 8 21-1 5-6 7-6 3-8 1-8-2-6-4-5-6-12-26-12-27-19-43-3-7-1 95-4 9-5 5-8 4h-20l-6-3v-114l2-17 5-12 7-9 10-7z" fill="#2478AD"/>
<path transform="translate(351,499)" d="m0 0h2l5 16 4 28 7-11 8-10 6-7 9-6 7 9 4 10 1 5v128l-8 3h-17l-10-5-6-7-2-6-1-97-17 40-12 29-6 13-3 7-2-2-10-28-10-27 6-16 13-31 9-16 11-12z" fill="#2378AE"/>
<path transform="translate(825,511)" d="m0 0h14l12 3 9 5 6 5 6 9 3 8 1 4v13l-3 10-6 10-9 8-11 5-5 1h-20l-11-4-9-6-9-10-4-11v-14l2-9 5-10 5-6 10-7 9-3z" fill="#5CA14E"/>
<path transform="translate(891,512)" d="m0 0h10l6 3 6 7 10 18 10 15v2h2l2-5 13-22 9-15 4-3h14l2 2v76l-4 1h-15l-1-1-1-38-10 16-8 13-2 2h-8l-5-5-15-25-1 37-1 1h-19l-1-1v-76z" fill="#5CA14F"/>
<path transform="translate(502,512)" d="m0 0 15 1v78h-19l-1-1-1-38-17 28-3 3h-8l-6-7-14-23-1 36-2 2h-18v-78h18l12 19 14 23 2 1 17-29 8-13z" fill="#5BA14E"/>
<path transform="translate(351,499)" d="m0 0h2l5 16 3 21 1 9-11 25-14 33-6 15-6 13-3 7-2-2-10-28-10-27 6-16 13-31 9-16 11-12z" fill="#83B75E"/>
<path transform="translate(622,513)" d="m0 0h18l9 10 18 22 6 7 1-38 1-1h20l1 1v76l-1 1h-17l-11-12-8-10-11-13-4-5-1 39-5 1h-16z" fill="#5BA14E"/>
<path transform="translate(560,512)" d="m0 0h15l6 4 5 8 10 24 15 33 3 7v3h-21l-4-5-4-8-1-1h-32l-3 9-6 5h-19l3-9 16-36 14-32z" fill="#5CA14F"/>
<path transform="translate(744,511)" d="m0 0h16l10 3 10 6 5 4-2 4-11 10-4-2-8-5-4-1h-8l-8 3-6 7-2 5v13l5 10 6 4 3 1h10l9-4 5-3 4 1 8 8 3 2v2l-10 8-9 4-4 1h-20l-12-4-10-7-7-9-4-9-1-5v-12l4-13 7-10 9-7 11-4z" fill="#5CA14F"/>
<path transform="translate(287,577)" d="m0 0 2 3 16 43 10 26-1 5-6 7-6 3-8 1-8-2-6-4-5-6-10-21 2-9 13-30z" fill="#156E47"/>
<path transform="translate(286,498)" d="m0 0h17l13 4 8 4-2 5-14 26-12 26-3 1-12-26-11-21-5-8v-3l10-5z" fill="#176F47"/>
<path transform="translate(330,516)" d="m0 0 2 1-3 4-1 7 1 7v67l1 6 3 1 1-2-1 6-9 21-2 4-2-2-10-28-10-27 6-16 13-31 9-16z" fill="#5BA04E"/>
<path transform="translate(391,509)" d="m0 0 5 5 5 8 3 11v128l-8 3h-11v-1l5-1v-132l1-4-1-11v-2l-5 3 2-4z" fill="#175992"/>
<path transform="translate(289,443)" d="m0 0h12l8 4 6 7 3 8-1 10-4 8-6 5-6 3h-12l-8-4-7-8-2-5v-11l4-8 5-5z" fill="#156E47"/>
<path transform="translate(205,443)" d="m0 0h12l8 4 6 7 3 7v8l-3 8-6 7-9 4h-10l-8-3-8-9-2-6v-10l5-10 9-6z" fill="#2378AE"/>
<path transform="translate(373,443)" d="m0 0h11l7 3 5 4 4 6 1 3v13l-6 10-8 5-3 1h-11l-10-5-5-6-2-6v-12l4-8 6-5z" fill="#2478AE"/>
<path transform="translate(829,529)" d="m0 0h7l8 3 5 5 3 5 1 2v15l-4 8-8 6-3 1h-11l-8-4-5-6-3-8v-9l3-8 4-5 7-4z" fill="#F7F7F7"/>
<path transform="translate(286,498)" d="m0 0h17l13 4 8 4-2 5-14 26-9 19-3-4-1-16 1-12v-23l2-1-12-1z" fill="#5AA04E"/>
<path transform="translate(296,443)" d="m0 0 8 1 8 6 5 8 1 10-3 9-6 7-8 4h-12v-1l5-1v-39z" fill="#5BA04E"/>
<path transform="translate(296,612)" d="m0 0h4l2 3 13 34-1 5-6 7-6 3-4-1-2-6v-36l1-5z" fill="#5AA04E"/>
<path transform="translate(750,619)" d="m0 0h10l5 4 2 4-1 9-5 5-2 1h-9l-6-5-1-2v-9l5-6z" fill="#64A552"/>
<path transform="translate(432,611)" d="m0 0 4 2 4 5 7 12v2h2l2-5 9-15 3-1 2 3v27l-4 1-1-1-1-18-10 16h-2l-9-15v-2h-2v18l-3 2-1-2z" fill="#64A652"/>
<path transform="translate(368,445)" d="m0 0 4 1-2 1v5l-1 2 1 5v25l2 2-6-1-5-4-4-7-1-3v-12l4-8 6-5z" fill="#1A5C92"/>
<path transform="translate(831,618)" d="m0 0 6 1 4 2 7-3 7 2 3 3 1 3v13l-3 3-2-7-1-10-3-2-7 1-1 15-3 3-2-3-1-13-3-3-6 1-1 2-2 14h-4v-19l1-2z" fill="#67A753"/>
<path transform="translate(783,618)" d="m0 0 6 1 4 2 8-3 7 2 3 5v16h-3l-1-1-1-13-1-3-5-1-4 2-1 3-1 11-1 2-3-1-2-15-3-2-7 1-1 14-2 4-2-1-1-4v-14l1-4h7z" fill="#63A552"/>
<path transform="translate(663,618)" d="m0 0 8 2 4 5 1 6-1 1h-17l3 5h11v3l-2 2h-10l-6-5-1-2v-9l4-6z" fill="#67A753"/>
<path transform="translate(595,618)" d="m0 0 6 1 6 5 1 7-1 1h-17l2 4 6 2 6-1v4l-2 1h-9l-6-4-2-4v-8l5-6z" fill="#66A753"/>
<path transform="translate(480,618)" d="m0 0 9 2 3 4v17l-4 1h-12l-4-4 1-7 3-2 11-1-1-4-6-1h-7l1-3z" fill="#64A652"/>
<path transform="translate(275,553)" d="m0 0h3l9 22-1 6-5 12-4 2-2-6-1-22v-13z" fill="#185B93"/>
<path transform="translate(722,611)" d="m0 0h10l6 4-1 3-6-2h-8l-6 5-1 7 3 7 4 2h9l5-2v4l-5 3h-10l-7-4-3-4-1-3v-9l4-7z" fill="#65A652"/>
<path transform="translate(558,610)" d="m0 0h2l2 10 9-2 5 3 3 5v15l-4 1-1-2-1-15-6-2-4 2-1 3-1 11-3 3-1-2v-29z" fill="#64A652"/>
<path transform="translate(220,446)" d="m0 0 5 1 6 7 3 7v8l-3 8-6 7-5 1 3-4 1-5v-12l-1-15z" fill="#1B5E93"/>
<path transform="translate(977,618)" d="m0 0 2 1-3 9-9 19-5 4-6-1-1-3 8-3-1-7-7-16v-2l5 1 6 13v3h2l3-9 3-6z" fill="#65A652"/>
<path transform="translate(512,618)" d="m0 0 6 1 4 5 1 3v14l-4 1-1-1-1-16-4-2-5 1-2 3-1 11-2 4-2-1-1-5v-12l2-5 4 1z" fill="#67A753"/>
<path transform="translate(568,535)" d="m0 0 3 3 8 20v1h-20l6-16z" fill="#F7F7F7"/>
<path transform="translate(885,618)" d="m0 0 4 3v18l-3 3-3-1-3 1h-8l-4-3-1-3v-16l3-1 1 2 1 14 2 2h7l2-2 1-16z" fill="#67A753"/>
<path transform="translate(908,618)" d="m0 0 6 1 5 5v18l-4-1-1-15-1-2-6-1-3 1-1 2-2 14-2 2-2-2v-19l1-2 5 1z" fill="#65A652"/>
<path transform="translate(619,619)" d="m0 0h9l2 3-1 1h-11l1 4 10 3 2 2v7l-5 3h-9l-4-2 1-3h11v-3l-9-3-3-4 1-5z" fill="#66A753"/>
<path transform="translate(753,622)" d="m0 0 6 1 3 3v8l-3 4h-8l-4-4v-7l3-4z" fill="#F7F7F7"/>
<path transform="translate(540,618)" d="m0 0 6 1 5 4v2l-11-2-4 2-1 2v7l3 3h7l6-1-2 4-3 2h-9l-6-5-2-8 3-7z" fill="#65A652"/>
<path transform="translate(942,614)" d="m0 0 4 2 1 2 5 2v2l-6 1v15l7 1-2 3h-6l-4-5-1-14-2-1v-3h2z" fill="#63A551"/>
<path transform="translate(639,614)" d="m0 0 3 1v3l6 1-1 3-4 1v15l6 1-1 3h-6l-4-4-1-15-2-1 1-5z" fill="#60A350"/>
<path transform="translate(693,618)" d="m0 0 2 1-2 4-4 2-1 2-1 13-3 2-2-2v-19l1-2 5 1z" fill="#68A853"/>
<path transform="translate(314,454)" d="m0 0 3 4 1 10-3 9-1-2-2-1v-19z" fill="#81B65E"/>
<path transform="translate(929,619)" d="m0 0h2l1 2v19l-3 2-1-1v-21z" fill="#65A652"/>
<path transform="translate(478,632)" d="m0 0h9l1 3-2 3-7 1-3-3z" fill="#F7F7F7"/>
<path transform="translate(594,622)" d="m0 0 7 1 2 5h-13l2-5z" fill="#F7F7F7"/>
<path transform="translate(662,622)" d="m0 0h5l4 5v1h-14l3-5z" fill="#F7F7F7"/>
<path transform="translate(269,536)" d="m0 0h2l6 14v3h-2l-6-14z" fill="#297095"/>
<path transform="translate(330,516)" d="m0 0 2 1-3 4-1 4-5 3 2-5z" fill="#66A753"/>
</svg>
